<?xml version="1.0" encoding="UTF-8"?>
<svg width="40px" height="40px" viewBox="0 0 40 40" version="1.1" xmlns="http://www.w3.org/2000/svg" xmlns:xlink="http://www.w3.org/1999/xlink">
    <!-- Generator: Sketch 55.2 (78181) - https://sketchapp.com -->
    <title>icon-cog</title>
    <desc>Created with Sketch.</desc>
    <g id="Page-1" stroke="none" stroke-width="1" fill="none" fill-rule="evenodd">
        <g id="Artboard" transform="translate(-1.000000, -1.000000)" fill="#FF0055">
            <path d="M21,25 C18.791,25 17,23.209 17,21 C17,18.791 18.791,17 21,17 C23.209,17 25,18.791 25,21 C25,23.209 23.209,25 21,25 M37,21 C37,19.859 36.52,18.831 35.752,18.104 C35.223,17.603 34.994,16.878 35.212,16.182 C35.531,15.157 35.436,14.002 34.86,13 C34.286,12.013 33.359,11.359 32.333,11.11 C31.63,10.94 31.06,10.37 30.89,9.667 C30.641,8.641 29.987,7.714 29,7.14 C27.997,6.564 26.843,6.468 25.817,6.788 C25.122,7.005 24.397,6.778 23.896,6.249 C23.169,5.48 22.141,5 21,5 C19.859,5 18.831,5.48 18.104,6.249 C17.603,6.778 16.878,7.005 16.182,6.788 C15.157,6.468 14.002,6.564 13,7.14 C12.013,7.714 11.359,8.641 11.111,9.667 C10.94,10.37 10.37,10.94 9.667,11.11 C8.641,11.359 7.714,12.013 7.14,13 C6.564,14.002 6.468,15.157 6.789,16.182 C7.005,16.878 6.778,17.603 6.249,18.104 C5.48,18.831 5,19.859 5,21 C5,22.141 5.48,23.169 6.249,23.896 C6.778,24.397 7.005,25.122 6.789,25.817 C6.468,26.843 6.564,27.997 7.14,29 C7.714,29.987 8.641,30.641 9.667,30.89 C10.37,31.06 10.94,31.63 11.111,32.333 C11.359,33.359 12.013,34.286 13,34.86 C14.002,35.436 15.157,35.531 16.182,35.212 C16.878,34.994 17.603,35.222 18.104,35.752 C18.831,36.52 19.859,37 21,37 C22.141,37 23.169,36.52 23.896,35.752 C24.397,35.222 25.122,34.994 25.817,35.212 C26.843,35.531 27.997,35.436 29,34.86 C29.987,34.286 30.641,33.359 30.89,32.333 C31.06,31.63 31.63,31.06 32.333,30.89 C33.359,30.641 34.286,29.987 34.86,29 C35.436,27.997 35.531,26.843 35.212,25.817 C34.994,25.122 35.222,24.397 35.752,23.896 C36.52,23.169 37,22.141 37,21" id="cog"></path>
        </g>
    </g>
</svg>